<!-- icon666.com - MILLIONS OF FREE VECTOR ICONS --><svg id="Layer_1" viewBox="0 0 64 64" xmlns="http://www.w3.org/2000/svg" data-name="Layer 1"><path d="m49 23h4a6 6 0 0 1 6 6v8a0 0 0 0 1 0 0h-16a0 0 0 0 1 0 0v-8a6 6 0 0 1 6-6z" fill="#80caa5"></path><path d="m58 37-2 25h-10l-2-25" fill="#9b85be"></path><path d="m43 29-2-.54-5.41-5.79a2.25 2.25 0 0 1 0-3 1.89 1.89 0 0 1 2.82 0l4.7 5 1.46.31" fill="#fbb57f"></path><circle cx="53" cy="15" fill="#fbb57f" r="5"></circle><path d="m50.07 27a2.23 2.23 0 0 1 1.93 2.32l-.27 10-4.08 6.68a1.93 1.93 0 0 1 -2.74.63 2.13 2.13 0 0 1 -.6-2.86l3.55-5.77-.16-8.7a2.2 2.2 0 0 1 2.37-2.3z" fill="#fbb57f"></path><g fill="#aadff1"><circle cx="8" cy="32" r="3"></circle><circle cx="14" cy="51" r="3"></circle><circle cx="22" cy="39" r="3"></circle><circle cx="28" cy="14" r="3"></circle><circle cx="22" cy="25" r="3"></circle><circle cx="14" cy="13" r="3"></circle><circle cx="35" cy="5" r="3"></circle></g><path d="m59 15a6 6 0 1 0 -6 6 6 6 0 0 0 6-6zm-10 0a4 4 0 1 1 4 4 4 4 0 0 1 -4-4z"></path><path d="m18.07 24.27-10.31 3.73a4 4 0 1 0 4 5.32l7.54 2.74a4 4 0 0 0 .56 6.28l-6.24 4.66a4 4 0 1 0 2.53.6l6.23-4.6a4 4 0 0 0 -.14-8l-10.31-3.73a4 4 0 0 0 -1.22-2.19l7.54-2.74a4 4 0 1 0 5.81-4.75l4.35-3.59a4 4 0 0 0 2.36-1.09l3.47 3.05a3.29 3.29 0 0 0 .61 3.4l5.41 5.79a1 1 0 0 0 .47.29l1.27.34v7.22a1 1 0 0 0 1 1h.08l.42 5.22v.07a3.14 3.14 0 0 0 .33 3.7l1.17 15.09a1 1 0 0 0 1 .92h10a1 1 0 0 0 1-.92l1.92-24.08h.08a1 1 0 0 0 1-1v-8a7 7 0 0 0 -7-7h-4a7 7 0 0 0 -4.76 1.88l-.62-.13-4.49-4.75a3 3 0 0 0 -3.57-.54l-3.74-3.28a4.17 4.17 0 0 0 .18-1.18 4 4 0 0 0 -1.41-3l4.68-2a4 4 0 1 0 -2.86-1l-4.68 2a4 4 0 0 0 -3.55 2.86l-6.29-.79a4 4 0 1 0 -.07 2l6.29.79a4 4 0 0 0 1.83 2.51l-4.35 3.63a4 4 0 0 0 -3.52 3.27zm-4.07 28.73a2 2 0 1 1 2-2 2 2 0 0 1 -2 2zm8-16a2 2 0 1 1 -2 2 2 2 0 0 1 2-2zm-14-3a2 2 0 1 1 2-2 2 2 0 0 1 -2 2zm37.47 11.84a1.14 1.14 0 0 1 -.3-1.51l3.55-5.84a.93.93 0 0 0 .14-.54l-.16-8.67a1.3 1.3 0 0 1 .41-1 1.1 1.1 0 0 1 .74-.29h.15a1.22 1.22 0 0 1 1 1.28l-.26 9.73-4 6.48a1 1 0 0 1 -.62.46.92.92 0 0 1 -.65-.1zm-.39-7.84h1.6l-1.41 2.31zm10 23h-8.16l-1-13h.08a2.7 2.7 0 0 0 .63-.07 2.92 2.92 0 0 0 1.9-1.37l4.09-6.71a1 1 0 0 0 .14-.49v-1.36h4.15zm-11.08-32a5 5 0 0 1 5-5h4a5 5 0 0 1 5 5v7h-5.18l.18-6.66a3.24 3.24 0 0 0 -2.82-3.34 3.1 3.1 0 0 0 -2.42.8 3.29 3.29 0 0 0 -1.06 2.5l.13 6.7h-2.83zm-7.69-8.69a.92.92 0 0 1 1.36 0l4.7 5a1 1 0 0 0 .5.29 7 7 0 0 0 -.74 2.07l-.6-.16-5.22-5.51a1.26 1.26 0 0 1 0-1.69zm-1.31-17.31a2 2 0 1 1 -2 2 2 2 0 0 1 2-2zm-21 12a2 2 0 1 1 2-2 2 2 0 0 1 -2 2zm14-3a2 2 0 1 1 -2 2 2 2 0 0 1 2-2zm-4 13a2 2 0 1 1 -2-2 2 2 0 0 1 2 2z"></path></svg>