<!-- icon666.com - MILLIONS OF FREE VECTOR ICONS --><svg id="Layer_1" viewBox="0 0 512 512" xmlns="http://www.w3.org/2000/svg" data-name="Layer 1"><path d="m183.544 219.341a168.991 168.991 0 0 1 24.825-151.271 152.5 152.5 0 1 0 -78.916 294.617 168.321 168.321 0 0 1 54.091-143.346zm-67.371 32.024v-51.509h5.527a21.531 21.531 0 1 0 -21.53-21.531v5.531h-4.107v-5.531a21.531 21.531 0 1 0 -21.531 21.531h5.531v51.509h-17.053c-3.819-42.965-23.12-42.209-23.12-73.465a58.228 58.228 0 1 1 116.456 0c0 31.259-19.3 30.5-23.12 73.468zm-20.11 0v-51.509h4.111v51.509zm20.11-67.509v-5.531a5.532 5.532 0 1 1 5.531 5.531zm-36.11 0h-5.531a5.531 5.531 0 1 1 5.531-5.531zm-16.513 83.509h69.136a9.5 9.5 0 0 1 -9.262 7.531h-50.612a9.5 9.5 0 0 1 -9.262-7.531zm9.462 23.535h50.212a9.5 9.5 0 0 1 -9.262 7.531h-31.446a9.488 9.488 0 0 1 -9.5-7.531zm9.7 23.53h30.805a9.5 9.5 0 0 1 -9.263 7.532h-12.276a9.5 9.5 0 0 1 -9.262-7.532zm209.943 14.03a168.992 168.992 0 0 0 151.27-24.824 152.516 152.516 0 1 1 -294.634 78.942 168.276 168.276 0 0 0 143.364-54.118zm-146.708 37.558a152.34 152.34 0 0 1 43.731-130.447 169.092 169.092 0 0 0 86.751 86.751 152.028 152.028 0 0 1 -130.482 43.7zm141.687-56.354a152.95 152.95 0 0 1 -85.3-85.3 152.3 152.3 0 0 1 116.575-31.275 152.6 152.6 0 0 1 -31.277 116.575zm47.773-113.24a167.952 167.952 0 0 1 -31.744 118.608 152.742 152.742 0 0 0 134.897-27.432 152.9 152.9 0 0 0 -103.153-91.179zm-99.807-135.643a168.684 168.684 0 0 1 97.032 118.584 168.69 168.69 0 0 1 118.587 97.035 152.467 152.467 0 1 0 -215.619-215.619zm-11.2 12.659a152.9 152.9 0 0 1 91.179 103.153 168.312 168.312 0 0 0 -118.611 31.747 152.746 152.746 0 0 1 27.432-134.9zm86.936 316.241a25.592 25.592 0 1 0 25.592 25.592 25.589 25.589 0 0 0 -25.592-25.592zm10.8-19.639-3.458-8.985h-14.678l-3.459 8.985a46.291 46.291 0 0 0 -13.549 5.616l-8.8-3.91-10.376 10.377 3.91 8.8a46.266 46.266 0 0 0 -5.617 13.549l-8.984 3.458v14.678l8.982 3.457a46.275 46.275 0 0 0 5.618 13.552l-3.909 8.8 10.37 10.381 8.8-3.91a46.285 46.285 0 0 0 13.548 5.616l3.466 8.981h14.674l3.457-8.982a46.272 46.272 0 0 0 13.552-5.617l8.8 3.909 10.377-10.377-3.91-8.8a46.285 46.285 0 0 0 5.616-13.548l8.985-3.458v-14.679l-8.983-3.457a46.248 46.248 0 0 0 -5.618-13.552l3.91-8.8-10.377-10.377-8.8 3.91a46.3 46.3 0 0 0 -13.548-5.616zm108.472-216.524h-76.053a4.984 4.984 0 0 1 -4.844-6.239 44.262 44.262 0 0 1 85.741 0 4.984 4.984 0 0 1 -4.844 6.239zm-38.026-94.237a22.374 22.374 0 1 1 -22.374 22.374 22.374 22.374 0 0 1 22.374-22.374zm-154.155 188.3 15.81 15.81a8 8 0 0 0 11.356-.044l38.076-34.554a7.986 7.986 0 0 0 -10.751-11.813l-32.748 29.72-10.431-10.431a8 8 0 0 0 -11.312 11.312z" fill-rule="evenodd"></path></svg>