<!-- icon666.com - MILLIONS OF FREE VECTOR ICONS --><svg id="Layer_1" enable-background="new 0 0 512 512" viewBox="0 0 512 512" xmlns="http://www.w3.org/2000/svg"><g clip-rule="evenodd" fill-rule="evenodd"><path d="m287.216 227.249c-4.255 0-7.753-3.495-7.753-7.749v-7.739h72.982v7.739c0 4.249-3.503 7.749-7.753 7.749zm54.479 6.004v7.749c0 4.244-3.498 7.749-7.739 7.749h-36.003c-4.248 0-7.739-3.502-7.739-7.749v-7.749zm-11.019 21.496v7.744c0 4.249-3.503 7.749-7.753 7.749h-13.947c-4.245 0-7.739-3.503-7.739-7.749v-7.744zm-14.724 47.573c-36.168 0-66.68-27.439-70.465-63.383l-.471-4.476h-69.824v14.391l21.899 8.43c.922.355 1.613 1.147 1.842 2.109 2.954 12.388 7.847 24.202 14.524 35.049.521.846.589 1.882.186 2.79l-9.52 21.469 24.594 24.594 21.466-9.537c.904-.402 1.949-.326 2.791.192 10.846 6.676 22.653 11.58 35.04 14.533.97.231 1.756.912 2.114 1.844l8.436 21.893h34.78l8.435-21.893c.357-.926 1.139-1.613 2.105-1.843 12.388-2.953 24.199-7.853 35.042-14.534.84-.518 1.895-.593 2.797-.192l21.456 9.537 24.606-24.594-9.521-21.457c-.398-.897-.34-1.954.177-2.792 6.682-10.848 11.587-22.669 14.535-35.064.229-.963.924-1.751 1.847-2.106l21.889-8.43v-14.391h-69.819l-.471 4.476c-3.786 35.948-34.3 63.385-70.47 63.385z" fill="#9bc9ff" style="fill: rgb(251, 4, 4);"></path><path d="m395.423 85.462c-2.208-3.822-.899-8.722 2.932-10.934l13.49-7.79c3.827-2.207 8.717-.889 10.93 2.932 2.207 3.832.899 8.717-2.932 10.93l-13.49 7.79c-1.257.729-2.636 1.068-3.987 1.068-2.773.001-5.461-1.425-6.943-3.996zm-36.521-44.522 7.79-13.49c2.212-3.822 7.103-5.14 10.934-2.932 3.827 2.212 5.14 7.112 2.928 10.934l-7.79 13.49c-1.483 2.57-4.17 4.01-6.938 4.01-1.351 0-2.73-.353-3.991-1.083-3.823-2.207-5.131-7.097-2.933-10.929zm-149.768 28.731c2.212-3.822 7.098-5.14 10.929-2.932l13.49 7.79c3.831 2.212 5.14 7.112 2.932 10.934-1.492 2.57-4.18 3.996-6.943 3.996-1.36 0-2.73-.339-3.987-1.068l-13.49-7.79c-3.83-2.213-5.143-7.098-2.931-10.93zm42.22-34.219c-2.212-3.822-.899-8.722 2.928-10.934 3.831-2.198 8.722-.889 10.92 2.932l7.79 13.49c2.212 3.832.899 8.722-2.918 10.93-1.257.73-2.641 1.083-4.001 1.083-2.758 0-5.451-1.44-6.929-4.01zm56.601-3.874v-15.575c0-4.42 3.577-8.002 7.997-8.002s8.002 3.582 8.002 8.002v15.575c0 4.425-3.582 8.002-8.002 8.002s-7.997-3.577-7.997-8.002zm143.757 213.843-18.686 7.197c-2.462.951-4.302 3.05-4.914 5.615-2.819 11.866-7.507 23.177-13.928 33.598-1.379 2.241-1.563 5.032-.49 7.442l8.129 18.319-19.75 19.74-18.319-8.143c-2.41-1.068-5.201-.88-7.451.504-10.407 6.415-21.708 11.099-33.579 13.928-2.56.612-4.66 2.438-5.611 4.909l-7.201 18.691h-27.917l-7.202-18.691c-.951-2.471-3.05-4.297-5.62-4.909-11.861-2.829-23.158-7.512-33.579-13.928-2.25-1.384-5.032-1.572-7.441-.504l-18.329 8.143-19.741-19.74 8.129-18.333c1.078-2.41.889-5.187-.499-7.437-6.411-10.421-11.089-21.722-13.918-33.588-.612-2.565-2.452-4.664-4.909-5.615l-18.696-7.197v-5.959h60.323c4.01 38.088 36.309 67.859 75.437 67.859 39.133 0 71.432-29.771 75.442-67.859h60.319v5.958zm-112.419 242.579c-16.827-37.57-24.758-73.399-23.2-104.78h-19.599c-3.309 0-6.27-2.038-7.46-5.121l-7.691-19.967c-10.647-2.913-20.866-7.14-30.468-12.642l-19.571 8.703c-3.031 1.337-6.571.678-8.91-1.662l-27.507-27.512c-2.339-2.339-3.003-5.879-1.661-8.91l8.689-19.566c-5.488-9.602-9.729-19.821-12.628-30.472l-19.971-7.691c-3.092-1.186-5.121-4.147-5.121-7.46v-19.458c0-4.42 3.582-8.002 8.002-8.002h75.898c4.42 0 8.002 3.582 8.002 8.002 0 33.01 26.853 59.862 59.857 59.862 18.404 0 34.883-8.355 45.873-21.463.551-4.98.852-10.03.852-15.048 0-8.501-.781-16.86-2.302-25.05-1.892 2.871-4.552 5.192-7.682 6.67v4.57c0 7.578-4.528 14.111-11.019 17.058v4.434c0 10.336-8.411 18.748-18.752 18.748h-13.947c-10.332 0-18.743-8.411-18.743-18.748v-4.434c-6.491-2.947-11.019-9.48-11.019-17.058v-4.57c-6.35-3.008-10.75-9.452-10.75-16.931v-10.477c-1.61-26.924-8.289-38.324-14.742-49.352-5.846-10.011-11.909-20.353-11.909-39.599 0-.141.01-.283.01-.424-5.041-.555-10.111-.847-15.161-.847-74.999 0-136.01 61.011-136.01 136.01 0 4.57.231 9.197.692 13.73 1.191 11.828-.899 22.696-6.392 33.24-5.479 10.52-12.958 20.979-22.24 31.08-1.789 2.339-2.645 4.368-2.358 5.601.151.678 1.172 3.149 7.701 6.349.061.019.108.047.169.08 13.702 7.098 11.941 21.11 8.618 32.769 1.742 1.93 7.211 5.088 12.351 5.498 3.53.282 6.453 2.843 7.192 6.312.73 3.46-.899 6.999-4.01 8.689-8.359 4.542-11.843 8.571-12.45 10.153.127.146.348.367.706.65 7.611 5.728 10.774 15.58 10.906 33.969.005.151 0 .292 0 .428-.071 1.483.278 1.789.499 1.981.8.711 5.869 4.048 27.036.4 21.322-4.801 38.714-2.871 51.691 5.728 11.202 7.432 18.94 19.698 23.068 36.53zm-3.921-360.072v-7.366c0-4.062 3.313-7.371 7.371-7.371 4.062 0 7.371 3.309 7.371 7.371 0 4.057-3.309 7.366-7.371 7.366zm-19.42-65.986c32.063 0 58.144 26.076 58.144 58.13 0 14.907-4.293 22.235-9.72 31.517-6.161 10.52-13.692 23.388-16.323 49.173h-12.68v-56.831h7.371c12.892 0 23.37-10.482 23.37-23.37 0-12.883-10.478-23.37-23.37-23.37-12.888 0-23.37 10.487-23.37 23.37v7.366h-6.839v-7.366c0-12.883-10.492-23.37-23.37-23.37-12.892 0-23.37 10.487-23.37 23.37 0 12.887 10.477 23.37 23.37 23.37h7.371v56.831h-12.69c-2.622-25.784-10.153-38.653-16.314-49.173-5.427-9.282-9.72-16.611-9.72-31.517 0-32.054 26.081-58.13 58.14-58.13zm3.422 138.82h-6.839v-56.831h6.839zm-22.838-72.834h-7.371c-4.062 0-7.371-3.309-7.371-7.366 0-4.062 3.309-7.371 7.371-7.371s7.371 3.309 7.371 7.371zm50.909 91.572c0 1.487-1.261 2.749-2.754 2.749h-57.475c-1.502 0-2.754-1.261-2.754-2.749v-2.739h62.983zm-10.75 21.501v-2.749h-41.482v2.749c0 1.487 1.252 2.749 2.739 2.749h36.003c1.478 0 2.74-1.261 2.74-2.749zm-30.458 18.748v2.744c0 1.487 1.257 2.749 2.739 2.749h13.947c1.492 0 2.754-1.262 2.754-2.749v-2.744zm153.477-36.29h-75.898c-3.361 0-6.232 2.08-7.422 5.013-2.151-12.36-5.851-24.382-11.061-35.951 2.834-15.712 7.903-24.4 12.855-32.849 5.846-10.011 11.908-20.353 11.908-39.599 0-40.879-33.259-74.133-74.143-74.133-35.269 0-64.847 24.763-72.307 57.824-5.644-.631-11.329-.96-16.983-.96-83.82 0-152.008 68.188-152.008 152.009 0 5.111.259 10.27.772 15.33.88 8.75-.612 16.451-4.66 24.25-4.881 9.357-11.621 18.738-20.051 27.879-.151.16-.287.329-.419.499-5.112 6.529-6.98 13.01-5.54 19.27 1.567 6.844 7.018 12.591 16.187 17.1 1.713.889 3.94 2.259.424 14.469-1.422 3.784-.951 7.922 1.346 11.744 1.972 3.248 5.083 6.02 8.651 8.209-4.048 3.93-7.06 8.562-7.479 13.749-.25 3.149.329 9.193 7.008 14.342.033.028.061.047.09.08 1.092.81 4.401 3.281 4.552 21.129-.268 7.409 3.059 11.96 5.912 14.478 7.23 6.373 20.117 7.682 40.569 4.133.132-.019.268-.052.4-.08 16.978-3.85 30.27-2.702 39.5 3.417 8.83 5.851 14.737 16.822 17.562 32.6.678 3.813 3.996 6.59 7.87 6.59h164.538c2.758 0 5.328-1.426 6.792-3.766 1.459-2.354 1.61-5.281.386-7.762-19.501-39.66-28.736-77.24-26.947-109.251h3.29c3.309 0 6.279-2.038 7.47-5.121l7.691-19.967c10.647-2.913 20.87-7.14 30.468-12.642l19.571 8.703c3.022 1.337 6.561.678 8.901-1.662l27.516-27.512c2.344-2.339 3.003-5.879 1.652-8.91l-8.689-19.557c5.498-9.611 9.739-19.83 12.638-30.482l19.962-7.691c3.088-1.186 5.13-4.147 5.13-7.46v-19.458c-.003-4.422-3.584-8.004-8.004-8.004z" fill="#57a4ff" style="fill: rgb(255, 255, 255);"></path></g></svg>