<!-- icon666.com - MILLIONS OF FREE VECTOR ICONS --><svg enable-background="new 0 0 512 512" viewBox="0 0 512 512" xmlns="http://www.w3.org/2000/svg"><g id="_x32_9_Business_Expertise"><g><path d="m374.704 314.217v20.112c0 6.783-5.379 12.162-12.161 12.162h-22.685c-1.52 9.238-3.976 18.242-7.25 27.012l19.762 11.342c5.73 3.274 7.717 10.758 4.444 16.488l-10.056 17.423c-3.274 5.73-10.758 7.718-16.605 4.444l-19.645-11.459c-5.964 7.25-12.512 13.797-19.762 19.761l11.459 19.761c3.275 5.731 1.287 13.215-4.443 16.49l-17.54 10.055c-5.73 3.392-13.097 1.405-16.488-4.442l-11.342-19.763c-8.654 3.275-17.657 5.73-27.012 7.25v22.802c0 6.666-5.379 12.045-12.045 12.045h-20.112c-6.665 0-12.162-5.379-12.162-12.045v-22.802c-9.238-1.52-18.242-3.975-26.895-7.25l-11.459 19.763c-3.275 5.847-10.641 7.834-16.488 4.442l-17.423-10.055c-5.73-3.274-7.717-10.758-4.444-16.49l11.46-19.761c-7.251-5.964-13.799-12.511-19.762-19.761l-19.762 11.459c-5.73 3.275-13.097 1.286-16.488-4.444l-10.056-17.423c-3.275-5.73-1.286-13.214 4.444-16.488l19.762-11.342c-3.274-8.77-5.73-17.774-7.25-27.012h-22.803c-6.665 0-12.045-5.379-12.045-12.162v-20.112c0-6.665 5.379-12.045 12.045-12.045h22.803c1.52-9.354 3.975-18.358 7.25-27.011l-19.762-11.342c-5.73-3.275-7.718-10.758-4.444-16.488l10.056-17.54c3.392-5.73 10.758-7.717 16.488-4.444l19.762 11.461c5.847-7.134 12.511-13.799 19.762-19.646l-11.46-19.763c-3.274-5.847-1.286-13.212 4.444-16.604l17.423-10.058c5.847-3.273 13.214-1.285 16.488 4.445l11.459 19.878c8.653-3.392 17.657-5.847 26.895-7.367v-22.686c0-6.782 5.496-12.16 12.162-12.16h20.112c6.665 0 12.045 5.379 12.045 12.16v22.686c9.355 1.52 18.358 3.975 27.012 7.367l11.342-19.878c3.391-5.73 10.758-7.718 16.488-4.445l17.54 10.058c5.73 3.392 7.717 10.757 4.443 16.604l-11.459 19.763c7.25 5.847 13.798 12.511 19.762 19.646l19.645-11.461c5.847-3.273 13.331-1.286 16.605 4.444l10.056 17.54c3.274 5.73 1.286 13.214-4.444 16.488l-19.762 11.342c3.274 8.653 5.73 17.657 7.25 27.011h22.685c6.783 0 12.161 5.38 12.161 12.045z" fill="#f78721"></path><path d="m374.69 314.209v20.148c0 6.716-5.338 12.141-12.141 12.141h-22.732c-1.464 9.214-3.961 18.254-7.233 27.037l19.805 11.279c5.683 3.273 7.663 10.763 4.391 16.533l-9.988 17.393c-3.272 5.769-10.763 7.75-16.618 4.477l-19.632-11.451c-6.027 7.231-12.571 13.776-19.804 19.717l11.452 19.804c3.272 5.684 1.292 13.174-4.391 16.447l-17.565 10.074c-5.769 3.358-13.088 1.377-16.533-4.478l-11.28-19.718c-8.696 3.273-17.651 5.683-27.037 7.234v22.817c0 6.63-5.425 12.056-12.055 12.056h-20.148c-6.63 0-12.141-5.426-12.141-12.056v-22.817c-9.213-1.55-18.254-3.96-26.865-7.234l-11.452 19.718c-3.272 5.855-10.677 7.836-16.532 4.478l-17.393-10.074c-5.769-3.273-7.749-10.763-4.477-16.447l6.372-11.021c7.233.861 14.552 1.292 21.957 1.292 102.637 0 185.815-83.178 185.815-185.815 0-7.662-.43-15.241-1.464-22.731l13.174-7.665c5.855-3.271 13.346-1.291 16.618 4.478l9.988 17.48c3.272 5.769 1.291 13.261-4.391 16.533l-19.805 11.365c3.272 8.611 5.769 17.652 7.233 26.951h22.732c6.802 0 12.14 5.425 12.14 12.055z" opacity=".12"></path><path d="m286.199 324.283c0 45.812-37.111 82.924-82.9 82.924s-82.923-37.111-82.923-82.924c0-45.788 37.135-82.899 82.923-82.899s82.9 37.111 82.9 82.899z" fill="#fdcf17"></path><path d="m210.062 45.188v138.666c0 15.944 12.925 28.869 28.869 28.869h20.425l15.381 39.687c3.315 8.552 15.418 8.546 18.724-.009l15.333-39.678h142.469c15.944 0 28.869-12.925 28.869-28.869v-138.666c0-15.944-12.925-28.869-28.869-28.869h-212.332c-15.944 0-28.869 12.925-28.869 28.869z" fill="#e8f1f8"></path><path d="m480.133 183.854v-138.666" fill="#e8f1f8"></path><path d="m313.305 101.118v49.999c0 2.885-2.338 5.223-5.223 5.223h-23.196c-2.885 0-5.223-2.338-5.223-5.223v-49.999c0-2.885 2.338-5.223 5.223-5.223h23.196c2.884 0 5.223 2.338 5.223 5.223z" fill="#0e9c4a"></path><path d="m313.311 101.118v49.999c0 2.89-2.35 5.223-5.223 5.223h-23.208c-2.873 0-5.223-2.333-5.223-5.223v-.522c13.51-2.176 23.835-13.911 23.835-28.03v-26.67h4.596c2.873 0 5.223 2.333 5.223 5.223z" opacity=".1"></path><path d="m361.918 52.953v98.163c0 2.885-2.338 5.223-5.223 5.223h-23.196c-2.885 0-5.223-2.338-5.223-5.223v-98.163c0-2.885 2.338-5.223 5.223-5.223h23.196c2.884 0 5.223 2.339 5.223 5.223z" fill="#475da9"></path><path d="m361.925 52.953v98.163c0 2.89-2.35 5.223-5.223 5.223h-23.208c-2.873 0-5.223-2.333-5.223-5.223v-.522c13.51-2.176 23.835-13.911 23.835-28.03v-74.834h4.596c2.872 0 5.223 2.333 5.223 5.223z" opacity=".1"></path><path d="m410.531 85.063v66.054c0 2.885-2.338 5.223-5.223 5.223h-23.196c-2.885 0-5.223-2.338-5.223-5.223v-66.054c0-2.885 2.338-5.223 5.223-5.223h23.196c2.885 0 5.223 2.338 5.223 5.223z" fill="#f14f4a"></path><path d="m410.538 85.063v66.054c0 2.89-2.35 5.223-5.223 5.223h-23.208c-2.873 0-5.223-2.333-5.223-5.223v-.522c13.51-2.176 23.835-13.911 23.835-28.03v-42.725h4.596c2.872 0 5.223 2.333 5.223 5.223z" opacity=".1"></path><path d="m197.216 292.64h30.52c2.819 0 5.1-2.284 5.1-5.1s-2.281-5.1-5.1-5.1h-19.354v-10.178c0-2.816-2.281-5.1-5.1-5.1s-5.1 2.284-5.1 5.1v10.178h-.966c-12.944 0-23.478 10.531-23.478 23.478s10.534 23.478 23.478 23.478h12.142c7.321 0 13.278 5.957 13.278 13.278s-5.957 13.278-13.278 13.278h-30.52c-2.819 0-5.1 2.284-5.1 5.1s2.281 5.1 5.1 5.1h19.344v10.175c0 2.816 2.281 5.1 5.1 5.1s5.1-2.284 5.1-5.1v-10.175h.976c12.944 0 23.478-10.531 23.478-23.478s-10.534-23.478-23.478-23.478h-12.142c-7.321 0-13.278-5.957-13.278-13.278s5.956-13.278 13.278-13.278z"></path><path d="m203.297 236.284c-48.535 0-88.02 39.478-88.02 88 0 48.535 39.485 88.022 88.02 88.022 48.525 0 88-39.488 88-88.022 0-48.523-39.476-88-88-88zm0 165.822c-42.912 0-77.82-34.911-77.82-77.822 0-42.899 34.908-77.8 77.82-77.8 42.897 0 77.8 34.901 77.8 77.8 0 42.911-34.904 77.822-77.8 77.822z"></path><path d="m434.226 176.212h-173.161v-128.482c0-2.816-2.281-5.1-5.1-5.1s-5.1 2.284-5.1 5.1v133.581c0 2.816 2.281 5.1 5.1 5.1h178.261c2.819 0 5.1-2.284 5.1-5.1s-2.281-5.099-5.1-5.099z"></path><path d="m284.887 161.44h23.194c5.693 0 10.325-4.629 10.325-10.322v-49.999c0-5.693-4.632-10.325-10.325-10.325h-23.194c-5.693 0-10.325 4.632-10.325 10.325v49.999c0 5.692 4.632 10.322 10.325 10.322zm0-60.446h23.194c.07 0 .125.055.125.125l-.125 50.121-23.319-.122z"></path><path d="m333.501 161.44h23.194c5.693 0 10.324-4.629 10.324-10.322v-98.165c0-5.693-4.632-10.322-10.324-10.322h-23.194c-5.693 0-10.324 4.629-10.324 10.322v98.165c0 5.692 4.631 10.322 10.324 10.322zm0-108.61h23.194c.07 0 .125.055.125.122l-.125 98.287-23.319-.122z"></path><path d="m451.264 217.823c18.732 0 33.967-15.238 33.967-33.969v-138.666c0-18.732-15.235-33.969-33.967-33.969h-212.332c-18.732 0-33.972 15.238-33.972 33.969v102.57h-11.729c-9.533 0-17.287 7.732-17.287 17.237v18.44c-6.679 1.317-13.213 3.113-19.518 5.359l-9.294-16.114c-4.632-8.17-15.136-11.034-23.458-6.34l-17.486 10.073c-8.063 4.751-10.887 15.278-6.26 23.525l9.313 16.062c-5.055 4.338-9.856 9.107-14.344 14.247l-16.077-9.346c-8.128-4.639-18.622-1.828-23.418 6.32l-10.12 17.576c-4.662 8.23-1.798 18.754 6.39 23.463l16.027 9.191c-2.216 6.457-3.979 13.031-5.264 19.635h-18.528c-9.448 0-17.138 7.687-17.138 17.135v20.094c0 9.533 7.69 17.29 17.138 17.29h18.537c1.29 6.532 3.053 13.089 5.269 19.583l-16.017 9.231c-8.178 4.625-11.108 15.212-6.39 23.465l10.115 17.474c4.776 8.106 15.27 10.917 23.433 6.26l16.047-9.331c4.453 5.098 9.264 9.906 14.359 14.359l-9.348 16.082c-4.707 8.235-1.863 18.746 6.31 23.416l17.462 10.11c8.515 4.876 18.934 1.713 23.418-6.35l9.338-16.062c6.41 2.206 12.939 3.969 19.504 5.262v18.54c0 9.448 7.755 17.135 17.287 17.135h20.096c9.448 0 17.138-7.687 17.138-17.135v-18.53c6.609-1.285 13.183-3.048 19.633-5.264l9.209 16.06c4.781 8.208 15.229 11.167 23.478 6.34l17.526-10.09c8.137-4.648 11.032-15.232 6.315-23.463l-9.328-16.05c5.115-4.47 9.911-9.274 14.319-14.349l16.057 9.358c8.292 4.649 18.841 1.803 23.488-6.34l10.041-17.427c4.76-8.202 1.864-18.828-6.305-23.451l-16.047-9.249c2.211-6.485 3.974-13.041 5.264-19.586h18.438c9.667 0 17.237-7.595 17.237-17.29v-20.094c0-9.448-7.735-17.135-17.237-17.135h-18.428c-1.285-6.614-3.048-13.191-5.264-19.635l16.037-9.196c8.2-4.724 11.04-15.274 6.32-23.48l-10.046-17.539c-4.657-8.156-15.185-11.012-23.573-6.313l-16.012 9.333c-.875-.997-1.922-2.065-2.9-3.11l3.602-9.323h138.975zm-138.213 23.386 19.613-11.433c3.372-1.898 7.794-.737 9.652 2.525l10.056 17.554c1.915 3.326.748 7.656-2.555 9.555l-19.738 11.321c-2.171 1.245-3.118 3.882-2.236 6.223 3.197 8.489 5.548 17.255 6.978 26.053.403 2.468 2.535 4.281 5.035 4.281h22.696c3.945 0 7.037 3.046 7.037 6.935v20.094c0 3.974-3.093 7.09-7.037 7.09h-22.696c-2.495 0-4.622 1.805-5.03 4.266-1.439 8.683-3.79 17.442-6.993 26.033-.867 2.336.075 4.956 2.236 6.198l19.772 11.393c3.282 1.865 4.44 6.196 2.53 9.49l-10.056 17.457c-1.868 3.26-6.295 4.4-9.577 2.562l-19.688-11.475c-2.176-1.265-4.926-.767-6.519 1.178-5.638 6.9-12.038 13.318-19.03 19.078-1.927 1.589-2.421 4.34-1.165 6.5l11.455 19.708c1.845 3.217.782 7.615-2.555 9.52l-17.566 10.113c-3.404 1.981-7.598.701-9.533-2.62l-11.321-19.738c-1.245-2.172-3.89-3.118-6.221-2.236-8.502 3.202-17.262 5.551-26.053 6.983-2.465.401-4.278 2.533-4.278 5.033v22.798c0 3.89-3.048 6.935-6.938 6.935h-20.096c-3.91 0-7.087-3.11-7.087-6.935v-22.798c0-2.495-1.803-4.624-4.268-5.03-8.736-1.449-17.452-3.798-25.908-6.985-2.311-.877-4.956.055-6.206 2.211l-11.525 19.817c-1.888 3.397-6.105 4.484-9.463 2.557l-17.467-10.113c-3.257-1.863-4.423-6.221-2.56-9.483l11.475-19.738c1.255-2.159.762-4.911-1.165-6.5-6.948-5.723-13.373-12.147-19.095-19.093-1.584-1.93-4.338-2.433-6.5-1.168l-19.701 11.458c-3.302 1.885-7.59.725-9.528-2.565l-10.085-17.417c-1.83-3.197-.808-7.586 2.605-9.525l19.738-11.373c2.157-1.243 3.103-3.862 2.236-6.196-3.207-8.616-5.558-17.377-6.993-26.035-.408-2.46-2.535-4.266-5.03-4.266h-22.796c-3.89 0-6.938-3.115-6.938-7.09v-20.094c0-3.89 3.048-6.935 6.938-6.935h22.796c2.5 0 4.632-1.813 5.035-4.281 1.429-8.776 3.775-17.541 6.978-26.055.882-2.341-.065-4.975-2.236-6.221l-19.728-11.316c-3.337-1.92-4.502-6.223-2.615-9.56l10.08-17.501c1.947-3.324 6.236-4.492 9.508-2.615l19.738 11.475c2.167 1.26 4.926.755 6.504-1.173 5.787-7.04 12.192-13.397 19.04-18.893 1.967-1.576 2.485-4.355 1.22-6.534l-11.44-19.728c-1.898-3.384-.742-7.73 2.535-9.66l17.407-10.026c3.372-1.905 7.66-.789 9.548 2.543l11.475 19.892c1.265 2.191 3.94 3.123 6.29 2.196 8.208-3.237 16.904-5.628 25.834-7.11 2.465-.406 4.268-2.535 4.268-5.03v-22.696c0-3.88 3.178-7.037 7.087-7.037h11.729v25.896c0 18.732 15.24 33.969 33.972 33.969h16.934l14.115 36.432c5.012 12.9 23.259 12.876 28.239-.017l6.361-16.464c.676.782 1.391 1.595 1.996 2.315 1.598 1.891 4.308 2.371 6.474 1.121zm-9.014-30.323-15.33 39.677c-1.625 4.209-7.58 4.21-9.214.005l-15.38-39.687c-.762-1.962-2.65-3.257-4.756-3.257h-20.425c-13.109 0-23.772-10.663-23.772-23.769 0-30.588 0-99.748 0-138.666 0-13.106 10.663-23.769 23.772-23.769h212.332c13.104 0 23.767 10.663 23.767 23.769v138.666c0 13.106-10.663 23.769-23.767 23.769h-142.471c-2.107-.001-3.999 1.297-4.756 3.262z"></path><path d="m382.11 161.44h23.199c5.693 0 10.32-4.629 10.32-10.322v-66.054c0-5.693-4.627-10.325-10.32-10.325h-23.199c-5.693 0-10.32 4.632-10.32 10.325v66.053c.001 5.693 4.628 10.323 10.32 10.323zm0-76.5h23.199c.065 0 .12.055.12.125l-.12 66.175-23.319-.122z"></path></g><g><path d="m377.078 315.381v20.515c0 6.919-5.486 12.405-12.404 12.405h-23.139c-1.551 9.423-4.056 18.607-7.395 27.553l20.157 11.569c5.844 3.34 7.872 10.974 4.532 16.818l-10.257 17.772c-3.34 5.844-10.974 7.872-16.937 4.532l-20.038-11.689c-6.083 7.395-12.762 14.073-20.157 20.156l11.689 20.156c3.34 5.846 1.313 13.479-4.532 16.819l-17.891 10.256c-5.845 3.459-13.359 1.433-16.818-4.531l-11.569-20.158c-8.827 3.34-18.01 5.844-27.552 7.395v23.258c0 6.799-5.487 12.285-12.285 12.285h-20.515c-6.799 0-12.405-5.486-12.405-12.285v-23.257c-9.422-1.551-18.607-4.055-27.433-7.395l-11.689 20.158c-3.34 5.964-10.854 7.99-16.818 4.531l-17.772-10.256c-5.844-3.34-7.872-10.974-4.532-16.819l11.689-20.156c-7.396-6.083-14.075-12.762-20.157-20.156l-20.157 11.689c-5.845 3.34-13.359 1.312-16.818-4.532l-10.256-17.774c-3.34-5.844-1.312-13.478 4.532-16.818l20.157-11.569c-3.34-8.945-5.844-18.13-7.395-27.553h-23.258c-6.799 0-12.285-5.486-12.285-12.405v-20.515c0-6.798 5.487-12.285 12.285-12.285h23.258c1.551-9.541 4.055-18.725 7.395-27.551l-20.157-11.569c-5.844-3.34-7.872-10.974-4.532-16.818l10.257-17.891c3.459-5.844 10.973-7.871 16.818-4.532l20.157 11.69c5.964-7.277 12.762-14.075 20.157-20.038l-11.689-20.158c-3.339-5.964-1.312-13.476 4.532-16.936l17.772-10.259c5.964-3.339 13.478-1.31 16.818 4.534l11.689 20.276c8.826-3.459 18.01-5.964 27.433-7.514v-23.14c0-6.917 5.606-12.403 12.405-12.403h20.515c6.799 0 12.285 5.486 12.285 12.403v23.14c9.542 1.551 18.725 4.055 27.552 7.514l11.569-20.276c3.459-5.844 10.973-7.872 16.818-4.534l17.891 10.259c5.844 3.459 7.872 10.972 4.532 16.936l-11.689 20.158c7.395 5.964 14.074 12.762 20.157 20.038l20.038-11.69c5.964-3.339 13.597-1.312 16.937 4.532l10.257 17.891c3.339 5.844 1.312 13.478-4.532 16.818l-20.157 11.569c3.339 8.826 5.844 18.01 7.395 27.551h23.139c6.917.001 12.403 5.488 12.403 12.286z" fill="#f78721"></path><path d="m377.064 315.373v20.551c0 6.851-5.445 12.384-12.383 12.384h-23.186c-1.493 9.398-4.04 18.619-7.378 27.578l20.201 11.505c5.796 3.339 7.816 10.978 4.479 16.863l-10.188 17.741c-3.337 5.885-10.978 7.905-16.951 4.566l-20.025-11.68c-6.147 7.376-12.822 14.051-20.2 20.112l11.681 20.2c3.337 5.798 1.318 13.438-4.479 16.776l-17.917 10.275c-5.885 3.425-13.35 1.404-16.863-4.567l-11.505-20.113c-8.87 3.339-18.004 5.797-27.577 7.378v23.273c0 6.763-5.533 12.297-12.296 12.297h-20.551c-6.763 0-12.384-5.534-12.384-12.297v-23.273c-9.398-1.581-18.619-4.04-27.402-7.378l-11.681 20.113c-3.337 5.972-10.89 7.993-16.863 4.567l-17.741-10.275c-5.884-3.339-7.904-10.978-4.567-16.776l6.499-11.241c7.377.878 14.843 1.318 22.396 1.318 104.69 0 189.531-84.841 189.531-189.532 0-7.816-.439-15.546-1.493-23.185l13.438-7.818c5.972-3.336 13.613-1.317 16.951 4.567l10.188 17.829c3.337 5.885 1.317 13.526-4.479 16.863l-20.201 11.593c3.337 8.783 5.885 18.005 7.378 27.49h23.186c6.937 0 12.382 5.533 12.382 12.296z" opacity=".12"></path><path d="m286.803 325.648c0 46.729-37.853 84.582-84.558 84.582s-84.582-37.854-84.582-84.582c0-46.704 37.878-84.557 84.582-84.557s84.558 37.854 84.558 84.557z" fill="#fdcf17"></path><path d="m209.143 40.972v141.439c0 16.263 13.184 29.447 29.447 29.447h20.834l15.689 40.481c3.381 8.723 15.726 8.717 19.098-.009l15.64-40.471h145.319c16.263 0 29.447-13.184 29.447-29.447v-141.44c0-16.263-13.184-29.447-29.447-29.447h-216.58c-16.263 0-29.447 13.184-29.447 29.447z" fill="#e8f1f8"></path><path d="m484.616 182.411v-141.439" fill="#e8f1f8"></path><path d="m314.451 98.02v50.999c0 2.942-2.385 5.328-5.328 5.328h-23.66c-2.942 0-5.328-2.385-5.328-5.328v-50.999c0-2.942 2.385-5.328 5.328-5.328h23.66c2.943.001 5.328 2.386 5.328 5.328z" fill="#0e9c4a"></path><path d="m314.458 98.02v50.999c0 2.948-2.397 5.328-5.328 5.328h-23.672c-2.93 0-5.328-2.38-5.328-5.328v-.533c13.781-2.22 24.311-14.189 24.311-28.591v-27.202h4.688c2.931 0 5.329 2.379 5.329 5.327z" opacity=".1"></path><path d="m364.036 48.892v100.127c0 2.942-2.385 5.328-5.328 5.328h-23.66c-2.942 0-5.328-2.385-5.328-5.328v-100.127c0-2.942 2.385-5.328 5.328-5.328h23.66c2.943.001 5.328 2.386 5.328 5.328z" fill="#475da9"></path><path d="m364.043 48.892v100.127c0 2.948-2.397 5.328-5.328 5.328h-23.672c-2.93 0-5.328-2.38-5.328-5.328v-.533c13.781-2.22 24.311-14.189 24.311-28.591v-76.33h4.688c2.932 0 5.329 2.379 5.329 5.327z" opacity=".1"></path><path d="m413.622 81.644v67.375c0 2.942-2.385 5.328-5.328 5.328h-23.66c-2.942 0-5.328-2.385-5.328-5.328v-67.375c0-2.942 2.385-5.328 5.328-5.328h23.66c2.942.001 5.328 2.386 5.328 5.328z" fill="#f14f4a"></path><path d="m413.628 81.644v67.375c0 2.948-2.397 5.328-5.328 5.328h-23.672c-2.93 0-5.328-2.38-5.328-5.328v-.533c13.781-2.22 24.311-14.189 24.311-28.591v-43.578h4.688c2.932 0 5.329 2.379 5.329 5.327z" opacity=".1"></path><path d="m196.04 293.373h31.131c2.875 0 5.202-2.329 5.202-5.202s-2.327-5.202-5.202-5.202h-19.741v-10.381c0-2.873-2.327-5.202-5.202-5.202s-5.202 2.329-5.202 5.202v10.381h-.986c-13.203 0-23.947 10.742-23.947 23.947s10.744 23.947 23.947 23.947h12.385c7.468 0 13.543 6.076 13.543 13.543s-6.076 13.543-13.543 13.543h-31.131c-2.875 0-5.202 2.329-5.202 5.202s2.327 5.202 5.202 5.202h19.731v10.379c0 2.873 2.327 5.202 5.202 5.202s5.202-2.329 5.202-5.202v-10.379h.996c13.203 0 23.947-10.742 23.947-23.948s-10.744-23.947-23.947-23.947h-12.385c-7.468 0-13.543-6.076-13.543-13.543s6.075-13.542 13.543-13.542z"></path><path d="m202.243 235.889c-49.505 0-89.78 40.267-89.78 89.76 0 49.505 40.275 89.783 89.78 89.783 49.495 0 89.76-40.277 89.76-89.783 0-49.493-40.265-89.76-89.76-89.76zm0 169.139c-43.77 0-79.376-35.609-79.376-79.379 0-43.757 35.606-79.356 79.376-79.356 43.755 0 79.356 35.599 79.356 79.356 0 43.77-35.602 79.379-79.356 79.379z"></path><path d="m437.791 174.616h-176.625v-131.051c0-2.873-2.327-5.202-5.202-5.202s-5.202 2.329-5.202 5.202v136.253c0 2.873 2.327 5.202 5.202 5.202h181.826c2.875 0 5.202-2.329 5.202-5.202.001-2.873-2.326-5.202-5.201-5.202z"></path><path d="m285.464 159.548h23.658c5.807 0 10.531-4.722 10.531-10.528v-50.999c0-5.807-4.724-10.531-10.531-10.531h-23.658c-5.807 0-10.531 4.724-10.531 10.531v50.999c0 5.806 4.725 10.528 10.531 10.528zm0-61.654h23.658c.071 0 .127.056.127.127l-.127 51.123-23.785-.124z"></path><path d="m335.051 159.548h23.658c5.807 0 10.531-4.722 10.531-10.528v-100.128c0-5.807-4.724-10.528-10.531-10.528h-23.658c-5.807 0-10.531 4.722-10.531 10.528v100.128c0 5.806 4.725 10.528 10.531 10.528zm0-110.781h23.658c.071 0 .127.056.127.124l-.127 100.253-23.785-.124z"></path><path d="m455.17 217.06c19.106 0 34.646-15.543 34.646-34.649v-141.439c0-19.106-15.54-34.649-34.646-34.649h-216.579c-19.106 0-34.651 15.542-34.651 34.649v104.622h-11.964c-9.723 0-17.633 7.887-17.633 17.582v18.809c-6.812 1.344-13.477 3.175-19.909 5.466l-9.479-16.437c-4.724-8.334-15.438-11.255-23.927-6.467l-17.836 10.274c-8.225 4.846-11.105 15.583-6.386 23.996l9.5 16.383c-5.156 4.425-10.053 9.289-14.631 14.532l-16.398-9.533c-8.291-4.732-18.994-1.864-23.887 6.447l-10.323 17.928c-4.755 8.395-1.834 19.129 6.518 23.932l16.348 9.375c-2.261 6.586-4.059 13.292-5.37 20.028h-18.898c-9.637 0-17.481 7.841-17.481 17.478v20.496c0 9.723 7.844 17.635 17.481 17.635h18.908c1.316 6.663 3.114 13.35 5.375 19.975l-16.338 9.416c-8.341 4.717-11.33 15.516-6.518 23.935l10.318 17.823c4.872 8.268 15.576 11.136 23.902 6.386l16.368-9.518c4.542 5.199 9.449 10.104 14.646 14.646l-9.535 16.404c-4.801 8.4-1.9 19.121 6.436 23.884l17.811 10.313c8.686 4.973 19.313 1.747 23.887-6.477l9.525-16.383c6.538 2.25 13.198 4.049 19.894 5.367v18.911c0 9.637 7.91 17.478 17.633 17.478h20.498c9.637 0 17.481-7.841 17.481-17.478v-18.9c6.741-1.311 13.447-3.109 20.026-5.37l9.393 16.381c4.877 8.372 15.534 11.391 23.947 6.467l17.877-10.292c8.3-4.741 11.252-15.537 6.442-23.932l-9.515-16.371c5.217-4.559 10.109-9.459 14.605-14.636l16.378 9.545c8.458 4.742 19.218 1.839 23.958-6.467l10.241-17.775c4.855-8.366 1.901-19.205-6.431-23.92l-16.368-9.434c2.256-6.614 4.054-13.302 5.37-19.977h18.806c9.86 0 17.582-7.747 17.582-17.635v-20.496c0-9.637-7.889-17.478-17.582-17.478h-18.796c-1.311-6.746-3.109-13.455-5.37-20.028l16.358-9.38c8.364-4.818 11.261-15.579 6.447-23.95l-10.246-17.889c-4.75-8.319-15.489-11.232-24.044-6.439l-16.332 9.52c-.893-1.017-1.961-2.106-2.958-3.173l3.674-9.51h141.752zm-140.978 23.853 20.005-11.661c3.439-1.936 7.95-.752 9.845 2.576l10.257 17.905c1.953 3.392.763 7.809-2.606 9.746l-20.132 11.547c-2.215 1.27-3.18 3.96-2.281 6.348 3.261 8.659 5.659 17.6 7.117 26.574.411 2.517 2.586 4.366 5.136 4.366h23.15c4.023 0 7.178 3.106 7.178 7.074v20.496c0 4.054-3.155 7.231-7.178 7.231h-23.15c-2.545 0-4.714 1.842-5.131 4.351-1.468 8.857-3.866 17.79-7.132 26.554-.884 2.383.076 5.055 2.281 6.322l20.168 11.621c3.348 1.902 4.529 6.32 2.581 9.68l-10.257 17.806c-1.905 3.325-6.421 4.488-9.769 2.614l-20.082-11.704c-2.22-1.29-5.024-.782-6.65 1.201-5.751 7.038-12.279 13.584-19.411 19.459-1.966 1.621-2.469 4.427-1.189 6.63l11.684 20.102c1.882 3.282.798 7.767-2.606 9.711l-17.917 10.315c-3.472 2.021-7.75.715-9.723-2.672l-11.547-20.132c-1.27-2.215-3.968-3.18-6.345-2.281-8.672 3.266-17.608 5.662-26.574 7.122-2.515.409-4.364 2.583-4.364 5.133v23.254c0 3.968-3.109 7.074-7.077 7.074h-20.498c-3.988 0-7.229-3.173-7.229-7.074v-23.254c0-2.545-1.839-4.717-4.354-5.131-8.91-1.478-17.801-3.874-26.427-7.125-2.357-.894-5.055.056-6.33 2.256l-11.755 20.214c-1.925 3.465-6.227 4.574-9.652 2.609l-17.816-10.315c-3.322-1.9-4.511-6.345-2.611-9.672l11.704-20.132c1.28-2.202.777-5.009-1.189-6.63-7.087-5.837-13.64-12.39-19.477-19.474-1.615-1.969-4.425-2.482-6.63-1.191l-20.097 11.687c-3.368 1.923-7.742.739-9.718-2.616l-10.284-17.77c-1.867-3.261-.824-7.738 2.657-9.716l20.132-11.6c2.2-1.267 3.165-3.94 2.281-6.32-3.272-8.789-5.669-17.724-7.132-26.556-.417-2.51-2.586-4.351-5.131-4.351h-23.252c-3.968 0-7.077-3.178-7.077-7.231v-20.496c0-3.968 3.109-7.074 7.077-7.074h23.252c2.55 0 4.724-1.849 5.136-4.366 1.458-8.951 3.851-17.892 7.117-26.576.899-2.388-.066-5.075-2.281-6.345l-20.122-11.542c-3.404-1.958-4.592-6.348-2.667-9.751l10.282-17.851c1.986-3.391 6.36-4.582 9.698-2.667l20.132 11.704c2.21 1.285 5.024.77 6.635-1.196 5.903-7.181 12.436-13.665 19.421-19.271 2.007-1.608 2.535-4.443 1.245-6.665l-11.669-20.122c-1.936-3.452-.757-7.884 2.586-9.853l17.755-10.226c3.439-1.943 7.813-.805 9.739 2.593l11.704 20.29c1.29 2.235 4.018 3.185 6.416 2.24 8.372-3.302 17.242-5.74 26.35-7.252 2.515-.414 4.354-2.586 4.354-5.131v-23.15c0-3.957 3.241-7.178 7.229-7.178h11.964v26.414c0 19.106 15.545 34.649 34.651 34.649h17.272l14.397 37.161c5.112 13.158 23.724 13.133 28.804-.018l6.489-16.793c.69.798 1.419 1.627 2.036 2.361 1.629 1.926 4.392 2.417 6.602 1.141zm-9.195-30.93-15.636 40.47c-1.657 4.293-7.732 4.295-9.398.005l-15.687-40.481c-.777-2.002-2.703-3.322-4.851-3.322h-20.833c-13.371 0-24.247-10.876-24.247-24.245 0-31.199 0-101.743 0-141.44 0-13.368 10.876-24.245 24.247-24.245h216.578c13.366 0 24.242 10.876 24.242 24.245v141.44c0 13.368-10.876 24.245-24.242 24.245h-145.321c-2.149.001-4.079 1.324-4.852 3.328z"></path><path d="m384.633 159.548h23.663c5.807 0 10.526-4.722 10.526-10.528v-67.375c0-5.807-4.719-10.531-10.526-10.531h-23.663c-5.807 0-10.526 4.724-10.526 10.531v67.375c0 5.806 4.719 10.528 10.526 10.528zm0-78.03h23.663c.066 0 .122.056.122.127l-.122 67.499-23.785-.124z"></path></g></g></svg>